<svg xmlns="http://www.w3.org/2000/svg" xmlns:xlink="http://www.w3.org/1999/xlink"
  viewBox="0 0 283.46 283.46">
  <defs>
    <clipPath id="clippath">
      <circle cx="141.73" cy="141.73" r="116.22"
        style="fill: none; stroke: #fff; stroke-miterlimit: 10; stroke-width: 4px;" />
    </clipPath>
  </defs>
  <g>
    <circle cx="141.73" cy="141.73" r="141.73" style="fill: #231815;" />
    <circle cx="141.73" cy="141.73" r="116.22"
      style="fill: #fff; stroke: #fff; stroke-miterlimit: 10;" />
    <g>
      <g style="clip-path: url(#clippath);">
        <g>
          <rect x="25.51" y="25.51" width="23.24" height="23.24"
            style="fill: #231815; stroke: #231815; stroke-miterlimit: 10;" />
          <rect x="48.75" y="25.51" width="23.24" height="23.24"
            style="fill: #231815; stroke: #231815; stroke-miterlimit: 10;" />
          <rect x="72" y="25.51" width="23.24" height="23.24"
            style="fill: #231815; stroke: #231815; stroke-miterlimit: 10;" />
          <rect x="95.24" y="25.51" width="23.24" height="23.24"
            style="fill: #231815; stroke: #231815; stroke-miterlimit: 10;" />
          <rect x="118.49" y="25.51" width="23.24" height="23.24"
            style="fill: #231815; stroke: #231815; stroke-miterlimit: 10;" />
          <rect x="25.51" y="48.75" width="23.24" height="23.24"
            style="fill: #231815; stroke: #231815; stroke-miterlimit: 10;" />
          <rect x="48.75" y="48.75" width="23.24" height="23.24"
            style="fill: #231815; stroke: #231815; stroke-miterlimit: 10;" />
          <rect x="72" y="48.75" width="23.24" height="23.24"
            style="fill: #231815; stroke: #231815; stroke-miterlimit: 10;" />
          <rect x="118.49" y="48.75" width="23.24" height="23.24"
            style="fill: #231815; stroke: #231815; stroke-miterlimit: 10;" />
          <rect x="141.73" y="48.75" width="23.24" height="23.24"
            style="fill: #231815; stroke: #231815; stroke-miterlimit: 10;" />
          <rect x="25.51" y="72" width="23.24" height="23.24"
            style="fill: #231815; stroke: #231815; stroke-miterlimit: 10;" />
          <rect x="48.75" y="72" width="23.24" height="23.24"
            style="fill: #231815; stroke: #231815; stroke-miterlimit: 10;" />
          <rect x="95.24" y="72" width="23.24" height="23.24"
            style="fill: #231815; stroke: #231815; stroke-miterlimit: 10;" />
          <rect x="25.51" y="95.24" width="23.24" height="23.24"
            style="fill: #231815; stroke: #231815; stroke-miterlimit: 10;" />
          <rect x="48.75" y="95.24" width="23.24" height="23.24"
            style="fill: #231815; stroke: #231815; stroke-miterlimit: 10;" />
          <rect x="72" y="95.24" width="23.24" height="23.24"
            style="fill: #231815; stroke: #231815; stroke-miterlimit: 10;" />
          <rect x="95.24" y="95.24" width="23.24" height="23.24"
            style="fill: #231815; stroke: #231815; stroke-miterlimit: 10;" />
          <rect x="118.49" y="95.24" width="23.24" height="23.24"
            style="fill: #231815; stroke: #231815; stroke-miterlimit: 10;" />
          <rect x="141.73" y="95.24" width="23.24" height="23.24"
            style="fill: #231815; stroke: #231815; stroke-miterlimit: 10;" />
          <rect x="25.51" y="118.49" width="23.24" height="23.24"
            style="fill: #231815; stroke: #231815; stroke-miterlimit: 10;" />
          <rect x="72" y="118.49" width="23.24" height="23.24"
            style="fill: #231815; stroke: #231815; stroke-miterlimit: 10;" />
          <rect x="48.75" y="164.98" width="23.24" height="23.24"
            style="fill: #231815; stroke: #231815; stroke-miterlimit: 10;" />
          <rect x="95.24" y="118.49" width="23.24" height="23.24"
            style="fill: #231815; stroke: #231815; stroke-miterlimit: 10;" />
          <rect x="25.51" y="141.73" width="23.24" height="23.24"
            style="fill: #231815; stroke: #231815; stroke-miterlimit: 10;" />
          <rect x="48.75" y="141.73" width="23.24" height="23.24"
            style="fill: #231815; stroke: #231815; stroke-miterlimit: 10;" />
          <rect x="72" y="141.73" width="23.24" height="23.24"
            style="fill: #231815; stroke: #231815; stroke-miterlimit: 10;" />
          <rect x="95.24" y="141.73" width="23.24" height="23.24"
            style="fill: #231815; stroke: #231815; stroke-miterlimit: 10;" />
          <rect x="118.49" y="141.73" width="23.24" height="23.24"
            style="fill: #231815; stroke: #231815; stroke-miterlimit: 10;" />
          <rect x="25.51" y="164.98" width="23.24" height="23.24"
            style="fill: #231815; stroke: #231815; stroke-miterlimit: 10;" />
          <rect x="72" y="164.98" width="23.24" height="23.24"
            style="fill: #231815; stroke: #231815; stroke-miterlimit: 10;" />
          <rect x="25.51" y="188.22" width="23.24" height="23.24"
            style="fill: #231815; stroke: #231815; stroke-miterlimit: 10;" />
          <rect x="48.75" y="188.22" width="23.24" height="23.24"
            style="fill: #231815; stroke: #231815; stroke-miterlimit: 10;" />
          <rect x="72" y="188.22" width="23.24" height="23.24"
            style="fill: #231815; stroke: #231815; stroke-miterlimit: 10;" />
          <rect x="95.24" y="188.22" width="23.24" height="23.24"
            style="fill: #231815; stroke: #231815; stroke-miterlimit: 10;" />
          <rect x="141.73" y="188.22" width="23.24" height="23.24"
            style="fill: #231815; stroke: #231815; stroke-miterlimit: 10;" />
          <rect x="25.51" y="211.47" width="23.24" height="23.24"
            style="fill: #231815; stroke: #231815; stroke-miterlimit: 10;" />
          <rect x="72" y="211.47" width="23.24" height="23.24"
            style="fill: #231815; stroke: #231815; stroke-miterlimit: 10;" />
          <rect x="95.24" y="211.47" width="23.24" height="23.24"
            style="fill: #231815; stroke: #231815; stroke-miterlimit: 10;" />
          <rect x="118.49" y="211.47" width="23.24" height="23.24"
            style="fill: #231815; stroke: #231815; stroke-miterlimit: 10;" />
          <rect x="25.51" y="234.71" width="23.24" height="23.24"
            style="fill: #231815; stroke: #231815; stroke-miterlimit: 10;" />
          <rect x="48.75" y="234.71" width="23.24" height="23.24"
            style="fill: #231815; stroke: #231815; stroke-miterlimit: 10;" />
          <rect x="72" y="234.71" width="23.24" height="23.24"
            style="fill: #231815; stroke: #231815; stroke-miterlimit: 10;" />
          <rect x="118.49" y="234.71" width="23.24" height="23.24"
            style="fill: #231815; stroke: #231815; stroke-miterlimit: 10;" />
          <rect x="141.73" y="234.71" width="23.24" height="23.24"
            style="fill: #231815; stroke: #231815; stroke-miterlimit: 10;" />
        </g>
        <rect x="-19.62" y="45.95" width="389.78" height="3.11"
          style="fill: #231815; stroke: #231815; stroke-miterlimit: 10;" />
        <rect x="-23.18" y="69.51" width="389.78" height="3.11"
          style="fill: #231815; stroke: #231815; stroke-miterlimit: 10;" />
        <rect x="-26.73" y="93.07" width="389.78" height="3.11"
          style="fill: #231815; stroke: #231815; stroke-miterlimit: 10;" />
        <rect x="-30.29" y="116.62" width="389.78" height="3.11"
          style="fill: #231815; stroke: #231815; stroke-miterlimit: 10;" />
        <rect x="-33.84" y="140.18" width="389.78" height="3.11"
          style="fill: #231815; stroke: #231815; stroke-miterlimit: 10;" />
        <rect x="-37.4" y="163.73" width="389.78" height="3.11"
          style="fill: #231815; stroke: #231815; stroke-miterlimit: 10;" />
        <rect x="-40.96" y="187.29" width="389.78" height="3.11"
          style="fill: #231815; stroke: #231815; stroke-miterlimit: 10;" />
        <rect x="-44.51" y="210.84" width="389.78" height="3.11"
          style="fill: #231815; stroke: #231815; stroke-miterlimit: 10;" />
        <rect x="-48.07" y="234.4" width="389.78" height="3.11"
          style="fill: #231815; stroke: #231815; stroke-miterlimit: 10;" />
      </g>
      <circle cx="141.73" cy="141.73" r="116.22"
        style="fill: none; stroke: #fff; stroke-miterlimit: 10; stroke-width: 4px;" />
    </g>
  </g>
</svg>